<svg width="259" height="170" viewBox="0 0 259 170" fill="none" xmlns="http://www.w3.org/2000/svg">
<path d="M134.078 2.90474C132.878 4.23807 131.011 4.63807 127.545 4.10474C116.478 2.3714 94.3447 8.63807 83.4113 16.7714C74.478 23.3047 66.2113 35.0381 66.078 41.1714C65.9447 43.8381 61.0113 34.3714 58.7447 27.0381C55.5447 16.5047 57.678 13.1714 70.7447 7.9714C73.9447 6.7714 67.5447 6.3714 37.678 6.3714C10.7447 6.23807 0.61135 6.63807 1.01135 7.70474C1.27802 8.50474 4.07802 10.6381 7.14468 12.2381C14.7447 16.3714 21.0113 21.8381 25.1447 28.2381C28.3447 33.3047 30.2113 37.5714 39.4113 62.2381C41.5447 67.7047 46.878 81.8381 51.4113 93.5714C55.9447 105.305 62.078 121.171 65.0113 128.905C77.678 162.105 80.478 168.238 82.3447 168.638C83.8113 168.905 85.5447 166.238 88.2113 159.571C90.2113 154.371 92.3447 149.838 92.878 149.438C93.4113 149.171 97.0113 150.105 101.011 151.705C117.678 158.371 131.545 159.705 148.078 156.105C153.278 155.038 159.011 153.838 160.878 153.438C164.078 152.771 164.611 153.305 167.411 160.905C169.411 166.371 171.145 168.905 172.478 168.638C173.545 168.371 177.678 161.038 181.811 152.238C201.278 109.705 209.678 91.1714 214.078 80.9047C218.345 70.9047 231.945 41.3047 237.411 29.7047C241.545 21.1714 248.078 14.1047 254.078 11.5714C256.345 10.6381 258.078 9.03807 258.078 8.10474C258.078 6.50474 252.745 6.23807 227.811 6.3714H197.411L205.678 8.7714C215.678 11.7047 218.078 13.4381 218.078 17.9714C218.078 21.1714 211.545 37.0381 201.278 59.3047C198.745 64.6381 196.745 69.4381 196.745 69.8381C196.745 70.6381 187.545 90.6381 186.745 91.3047C186.611 91.5714 183.145 89.3047 179.011 86.2381C173.411 81.9714 171.145 79.1714 169.011 73.8381C167.411 69.9714 162.611 57.9714 158.211 47.0381C153.811 36.1047 150.345 26.9047 150.611 26.5047C151.945 25.1714 161.145 31.0381 167.011 37.0381C173.145 43.3047 181.945 57.9714 182.078 62.2381C182.078 63.3047 183.011 65.7047 184.078 67.5714C185.811 70.5047 185.945 66.9047 185.945 35.5714C185.945 7.43806 185.678 0.638069 184.345 2.3714C183.411 3.5714 180.745 7.30474 178.478 10.7714C173.278 18.2381 170.611 18.5047 159.678 13.1714C155.545 11.0381 149.545 8.63807 146.478 7.5714C143.145 6.63807 140.478 4.7714 140.078 3.30474C139.011 0.371402 136.345 0.238069 134.078 2.90474ZM134.478 8.23807C142.611 9.1714 146.478 10.5047 160.211 17.0381C169.945 21.5714 172.611 21.8381 177.145 18.2381C179.011 16.7714 180.878 15.5714 181.278 15.5714C181.678 15.5714 182.078 23.1714 181.945 32.5047V49.5714L179.011 45.5714C172.878 37.1714 161.678 27.1714 154.611 23.9714C146.211 20.1047 131.678 16.7714 126.345 17.5714C113.811 19.1714 110.211 20.1047 105.145 23.0381C99.278 26.5047 95.4113 31.9714 95.4113 37.0381C95.4113 47.5714 112.878 63.5714 131.411 69.9714C134.478 71.0381 135.678 73.1714 139.011 82.5047C145.811 101.038 145.678 100.105 141.278 99.0381C134.078 97.3047 107.945 86.3714 98.878 81.3047C73.9447 67.5714 64.7447 49.9714 73.4113 33.0381C79.9447 19.9714 96.078 10.3714 115.945 7.70474C119.678 7.1714 123.678 6.7714 124.745 7.03807C125.811 7.1714 130.211 7.70474 134.478 8.23807ZM57.1447 9.70474C57.5447 10.2381 57.1447 11.8381 56.078 13.4381C53.1447 17.5714 53.678 25.3047 57.5447 33.8381C59.4113 38.1047 64.878 51.4381 69.5447 63.5714C74.3447 75.7047 78.7447 86.7714 79.278 88.2381C79.9447 89.7047 82.6113 96.2381 85.0113 102.638C87.5447 109.171 90.078 114.371 90.7447 114.371C91.278 114.371 94.2113 108.505 97.1447 101.305C100.078 94.1047 102.611 87.9714 102.878 87.8381C103.411 87.0381 107.811 88.7714 110.478 90.7714C112.878 92.6381 113.678 90.3714 100.078 123.171C97.678 128.905 95.678 127.971 88.878 118.238C82.478 109.038 77.9447 99.3047 75.278 88.9047C73.4113 81.7047 73.4113 82.3714 72.7447 108.905L72.078 136.238L68.878 128.238C67.1447 123.838 64.6113 117.838 63.278 114.905C60.3447 108.105 53.4113 90.2381 42.6113 61.1714C37.8113 48.3714 32.7447 35.1714 31.1447 31.8381C28.2113 25.8381 15.4113 11.5714 12.7447 11.5714C11.9447 11.5714 11.4113 10.9047 11.4113 10.2381C11.4113 8.7714 55.678 8.23807 57.1447 9.70474ZM247.678 9.70474C248.345 10.1047 247.411 11.5714 245.545 13.0381C241.278 16.3714 233.945 27.7047 230.211 36.9047C228.478 40.9047 224.745 49.3047 221.945 55.3047C219.011 61.4381 216.745 66.6381 216.745 66.9047C216.745 67.1714 213.811 73.7047 210.078 81.5714C206.478 89.4381 203.411 96.1047 203.411 96.3714C203.411 96.7714 201.411 101.305 198.878 106.638C196.345 111.971 193.011 119.171 191.411 122.905C187.145 132.371 182.478 142.638 177.145 154.238L172.478 164.238L166.478 148.238C163.278 139.438 155.545 118.105 149.278 100.905C143.011 83.7047 136.345 65.4381 134.478 60.3714L131.011 51.0381L128.211 57.0381C126.745 60.2381 125.278 63.1714 125.145 63.4381C124.745 64.1047 115.411 59.3047 115.411 58.3714C115.411 57.9714 123.011 39.4381 128.345 27.3047C130.745 21.7047 133.545 20.2381 139.411 21.5714C143.945 22.5047 145.278 24.7714 151.278 39.8381C154.211 47.3047 176.478 101.971 180.345 111.171C181.278 113.438 183.411 113.438 183.411 111.171C183.411 110.238 184.478 107.038 185.945 104.105C187.278 101.305 192.078 90.5047 196.478 80.2381C205.678 58.7714 214.878 37.4381 216.745 33.5714C221.945 22.1047 223.411 15.1714 220.745 13.5714C220.078 13.1714 219.411 11.9714 219.411 10.9047C219.411 9.5714 222.611 9.1714 232.878 9.03807C240.345 9.03807 247.011 9.30474 247.678 9.70474ZM126.078 21.5714C126.078 22.3714 117.411 43.3047 114.211 50.6381L111.811 55.7047L107.545 52.2381C102.211 47.5714 99.4113 42.2381 99.4113 36.5047C99.4113 30.9047 103.145 26.7714 111.545 23.4381C117.011 21.1714 126.078 20.1047 126.078 21.5714ZM131.411 64.3714C131.411 65.4381 130.878 65.9714 130.078 65.5714C129.411 65.1714 128.745 64.2381 128.745 63.4381C128.745 62.7714 129.411 62.2381 130.078 62.2381C130.878 62.2381 131.411 63.1714 131.411 64.3714ZM95.1447 82.9047C97.4113 84.1047 99.4113 85.3047 99.4113 85.4381C99.4113 87.1714 91.8113 103.305 90.878 103.705C89.8113 104.105 76.878 74.2381 76.7447 71.3047C76.7447 70.7714 79.9447 72.6381 83.8113 75.5714C87.5447 78.5047 92.7447 81.8381 95.1447 82.9047ZM184.078 99.9714C183.545 101.971 182.611 103.571 181.811 103.571C180.478 103.571 177.411 96.9047 176.078 90.7714L175.145 86.9047L179.945 91.7047C184.078 95.5714 184.745 97.0381 184.078 99.9714ZM122.345 95.4381C127.011 97.3047 130.078 98.5047 138.611 101.438L146.611 104.238L150.611 115.838C155.145 129.038 155.011 129.571 145.145 134.238C134.478 139.171 125.811 140.238 116.478 137.705C111.945 136.505 106.611 134.238 104.611 132.771L100.878 130.105L106.878 115.838C110.211 107.971 113.545 99.9714 114.345 97.8381C115.811 93.9714 117.411 93.4381 122.345 95.4381ZM86.078 119.571C88.6113 123.305 94.2113 129.038 98.6113 132.371C113.678 143.838 130.611 145.305 147.545 136.371L156.745 131.705L158.745 136.371C159.811 138.905 161.011 142.905 161.411 145.305C162.211 149.571 162.078 149.838 157.145 151.171C132.078 158.505 110.478 155.438 89.1447 141.438C85.4113 138.905 81.0113 136.905 79.5447 136.905C76.878 136.905 76.7447 136.238 76.7447 121.838C76.878 105.038 76.078 105.171 86.078 119.571ZM85.678 142.505C90.478 145.838 90.478 146.105 85.8113 156.905C83.5447 162.238 83.0113 162.638 81.5447 160.638C80.6113 159.438 79.1447 155.971 78.078 153.038C76.7447 148.771 76.7447 146.905 78.078 143.705C79.0113 141.438 80.078 139.571 80.478 139.571C80.878 139.571 83.278 140.905 85.678 142.505Z" fill="#4B4ACE" stroke="#4B4ACE" stroke-width="1.5"/>
</svg>
